<svg xmlns="http://www.w3.org/2000/svg" width="11" height="13" viewBox="0 0 11 13">
    <path fill="#BCC1C7" fill-rule="evenodd" d="M8.134 5.173c-.353.398-.82.592-1.638.592h-3.63V1.323h3.602c.576 0 .976.036 1.18.108.34.212.605.375.8.737.204.374.307.82.307 1.327 0 .725-.286 1.292-.62 1.678m1.848-3.266C9.78 1.388 9.481 1.08 9.165.79 8.85.5 8.29.217 7.825.121 7.491.036 6.998 0 6.366 0H1.458v5.765H.657v1.292h.801v.524H.657v1.293h.801v3.57h1.408v-3.57h5.04V7.581h-5.04v-.524h3.612c1.357 0 2.327-.373 2.933-1.098.578-.693.932-1.3.932-2.362 0-.616-.174-1.183-.36-1.69"/>
</svg>
