<svg xmlns="http://www.w3.org/2000/svg" width="10" height="13" viewBox="0 0 10 13">
    <path fill="#221F20" fill-rule="evenodd" d="M7.478 5.173c-.354.398-.82.592-1.639.592H2.21V1.323h3.603c.576 0 .975.036 1.18.108.338.212.604.375.8.737.204.374.306.82.306 1.327 0 .725-.286 1.292-.62 1.678m1.849-3.266c-.205-.519-.503-.828-.819-1.118C8.192.5 7.633.217 7.168.121 6.835.036 6.342 0 5.71 0H.802v5.765H0v1.292h.802v.524H0v1.293h.802v3.57h1.407v-3.57h5.04V7.581h-5.04v-.524h3.612c1.357 0 2.328-.373 2.933-1.098.579-.693.933-1.3.933-2.362 0-.616-.175-1.183-.36-1.69"/>
</svg>
